<?xml version="1.0" standalone="no"?>
<!DOCTYPE svg PUBLIC "-//W3C//DTD SVG 20010904//EN"
 "http://www.w3.org/TR/2001/REC-SVG-20010904/DTD/svg10.dtd">
<svg version="1.0" xmlns="http://www.w3.org/2000/svg"
 width="100.000000pt" height="50.000000pt" viewBox="0 0 100.000000 50.000000"
 preserveAspectRatio="xMidYMid meet">
<metadata>
Created by potrace 1.16, written by Peter Selinger 2001-2019
</metadata>
<g transform="translate(0.000000,50.000000) scale(0.019531,-0.009766)"
fill="#000000" stroke="none">
<path d="M0 2560 l0 -2560 2560 0 2560 0 0 2560 0 2560 -2560 0 -2560 0 0
-2560z m3230 2483 c0 -10 -9 -47 -20 -82 -28 -88 -56 -252 -75 -433 -9 -84
-18 -155 -21 -157 -2 -3 -11 4 -19 15 -11 15 -15 16 -16 4 -4 -37 -18 83 -18
160 -1 47 -5 91 -10 98 -5 9 -22 -12 -55 -68 -25 -44 -48 -80 -51 -80 -8 0 6
34 106 250 103 226 148 310 164 310 8 0 15 -8 15 -17z m97 1 c13 -35 -22 -546
-48 -694 -21 -119 -83 -320 -95 -307 -2 2 5 46 15 98 34 163 53 381 56 654 2
143 3 261 4 263 1 1 15 2 31 2 19 0 33 -6 37 -16z m-3010 -54 c6 -30 12 -72
12 -92 1 -47 16 -49 30 -5 6 18 24 49 40 68 27 31 31 33 46 18 26 -25 48 -127
48 -224 1 -94 -13 -153 -44 -194 -24 -30 -24 -31 7 -64 39 -42 58 -149 44
-246 -20 -131 -58 -189 -98 -149 -9 9 -12 -9 -12 -82 0 -109 -17 -175 -49
-202 -40 -31 -60 -23 -83 32 -20 49 -21 50 -41 33 -11 -10 -28 -36 -38 -58
-16 -34 -19 -36 -19 -15 0 33 24 77 55 102 20 15 25 28 25 63 0 24 -4 46 -8
49 -4 2 -21 -11 -36 -30 -21 -27 -34 -34 -54 -32 -23 3 -29 10 -40 53 -21 79
-11 207 22 288 l28 69 -25 26 c-47 49 -61 97 -61 208 1 131 18 167 82 172 l42
3 0 68 c0 63 16 176 27 194 3 5 24 7 46 5 l42 -4 12 -54z m4576 -52 c4 -40 12
-93 20 -118 17 -59 40 -59 84 -2 18 24 33 40 33 36 0 -4 -7 -46 -16 -93 -22
-118 -16 -217 16 -264 14 -20 30 -37 36 -37 6 0 15 19 20 43 11 51 18 -977 9
-1131 -6 -93 -8 -101 -20 -79 -7 14 -23 78 -35 143 -12 66 -28 144 -36 175 -8
31 -14 68 -14 82 0 14 -5 38 -11 54 -12 32 -22 22 -40 -42 -7 -22 -14 -35 -16
-28 -2 6 12 82 31 169 20 87 36 170 36 185 0 31 -21 52 -47 47 -22 -4 -51
-108 -52 -185 -1 -78 -17 -64 -24 20 -15 167 -51 209 -107 121 -35 -55 -35
-55 -15 49 31 162 13 268 -54 318 l-31 23 39 40 c22 23 45 54 50 69 15 40 14
142 -4 234 -20 102 -20 101 18 51 44 -57 67 -57 84 2 8 25 16 78 20 118 3 39
9 72 13 72 4 0 10 -33 13 -72z m-3086 -49 c37 -14 151 -132 169 -174 10 -26
12 -50 4 -107 -6 -54 -6 -75 3 -80 9 -5 13 8 17 47 6 59 16 78 26 49 3 -10 12
-32 19 -49 20 -46 35 -106 24 -100 -5 4 -9 -5 -9 -19 0 -13 -3 -31 -6 -40 -3
-9 -1 -16 5 -16 7 0 15 10 20 22 11 30 17 16 52 -104 58 -201 119 -589 119
-757 0 -53 -7 -88 -31 -150 -17 -45 -35 -81 -40 -81 -23 0 -58 191 -60 320 -1
99 -13 140 -51 170 -16 12 -28 19 -28 15 0 -3 -9 -1 -20 5 -11 6 -20 19 -20
30 0 10 -8 32 -17 49 -27 46 -67 57 -43 11 9 -17 8 -27 -7 -52 -24 -41 -41
-46 -52 -15 -5 14 -13 26 -18 28 -4 2 -20 21 -34 42 -23 33 -26 47 -24 97 3
62 18 100 39 100 7 0 28 21 46 48 19 26 37 49 41 52 27 19 35 228 11 252 -7 7
-12 20 -12 30 0 10 -6 18 -13 18 -13 0 -11 88 3 103 10 11 1 47 -11 47 -5 0
-9 -13 -9 -30 0 -34 -6 -37 -32 -13 -10 9 -18 30 -18 49 0 29 -5 36 -40 54
-22 11 -40 25 -40 30 0 6 -6 10 -14 10 -7 0 -19 7 -26 15 -10 12 -16 9 -36
-21 -13 -19 -24 -43 -24 -52 0 -20 -39 -73 -40 -54 0 6 -4 12 -8 12 -14 0 -32
-48 -32 -85 0 -36 -15 -46 -38 -23 -9 9 -13 7 -18 -8 -4 -10 -17 -32 -28 -47
l-21 -29 -7 34 c-3 18 -3 37 1 43 4 5 8 21 9 34 2 35 68 169 108 218 60 73
138 100 211 72z m-33 -424 c20 28 50 14 65 -31 24 -70 -5 -124 -52 -95 -20 13
-20 12 -13 -105 3 -66 9 -154 13 -196 4 -51 2 -78 -4 -78 -14 0 -20 36 -34
223 -7 86 -15 157 -18 157 -4 0 -14 -14 -23 -31 -20 -35 -34 -31 -53 15 -16
37 -6 99 19 125 13 12 20 13 35 4 16 -10 20 -9 25 10 6 21 7 21 17 4 10 -17
12 -17 23 -2z m-314 -75 c0 -30 5 -50 13 -52 8 -3 14 -43 18 -127 3 -67 11
-127 17 -133 18 -18 26 38 12 87 -7 24 -10 49 -8 57 3 7 11 -11 18 -41 8 -33
15 -48 20 -41 6 9 18 2 42 -25 18 -21 37 -45 43 -54 12 -21 16 -163 4 -156 -5
4 -9 14 -9 23 0 14 -2 14 -9 3 -6 -9 -5 -21 2 -32 8 -12 8 -27 1 -51 -7 -20
-7 -41 -2 -53 6 -13 3 -42 -6 -80 -14 -58 -14 -59 -21 -27 -6 27 -11 31 -29
26 -11 -4 -21 -7 -21 -8 0 0 -9 -15 -21 -31 -19 -27 -20 -40 -16 -115 9 -127
8 -397 0 -406 -12 -12 -37 15 -73 80 -31 57 -34 71 -46 204 -8 95 -10 233 -5
410 7 305 15 380 39 394 15 8 17 21 13 86 -3 42 -2 87 1 99 9 38 23 15 23 -37z
m-206 -237 c-14 -93 -75 -234 -111 -256 -7 -4 -20 -22 -29 -39 -9 -17 -27 -43
-41 -57 -40 -43 -95 -150 -130 -251 -31 -92 -31 -93 -26 -40 10 92 59 211 135
325 38 58 74 105 78 105 15 0 77 120 101 193 12 37 24 67 26 67 2 0 1 -21 -3
-47z m2853 -205 c-11 -188 -29 -274 -90 -429 -80 -203 -108 -231 -37 -37 45
122 81 274 104 446 9 62 16 117 16 122 0 6 3 10 7 10 3 0 3 -51 0 -112z m-499
-84 c7 -61 27 -139 61 -240 79 -236 85 -273 87 -554 l2 -245 -19 75 c-11 41
-39 117 -64 167 -25 51 -45 95 -45 99 0 4 -8 13 -17 20 -17 11 -18 44 -21 395
-1 211 -1 381 2 379 2 -3 9 -46 14 -96z m-1709 -178 c38 -17 35 -29 -14 -49
-30 -13 -45 -25 -45 -37 0 -16 -18 -30 -41 -30 -5 0 -9 7 -9 16 0 14 -8 16
-50 10 -60 -8 -64 2 -19 57 19 24 39 37 54 37 13 0 27 5 30 11 8 11 55 4 94
-15z m39 -84 c43 -43 31 -184 -18 -209 -15 -8 -19 -13 -9 -13 8 0 21 6 28 13
10 10 15 8 27 -8 12 -15 14 -40 10 -105 -5 -104 -40 -319 -55 -348 -24 -46
-91 -57 -115 -19 -7 12 -24 56 -36 97 -12 41 -30 89 -40 105 -27 44 -46 168
-32 200 6 14 17 22 24 20 36 -13 78 61 78 140 0 68 10 94 27 73 6 -7 13 -22
16 -33 3 -11 5 -4 6 18 1 26 9 46 26 62 29 30 39 31 63 7z m-164 -43 c15 -13
19 -104 7 -142 -14 -42 -42 -70 -63 -62 -20 8 -38 71 -38 133 0 40 5 56 22 72
21 20 50 19 72 -1z m2653 -257 c38 -99 15 -317 -36 -349 -49 -31 -96 82 -90
215 4 71 7 83 30 104 15 14 32 41 39 62 15 45 30 37 57 -32z m-1861 -65 c3 -8
-4 -35 -16 -61 -11 -26 -20 -53 -20 -59 1 -7 12 15 26 48 28 64 41 85 55 85
12 0 11 -43 -1 -76 -8 -20 -8 -29 1 -35 18 -10 5 -114 -20 -173 -12 -27 -20
-54 -18 -60 2 -6 10 7 17 29 7 22 16 44 21 50 12 12 12 -81 0 -123 -7 -22 -6
-32 1 -32 19 0 2 -131 -25 -195 -14 -33 -34 -82 -45 -110 -17 -41 -22 -46 -28
-31 -7 19 5 111 20 151 6 15 6 17 -3 5 -19 -27 -25 0 -15 69 6 44 6 74 0 84
-7 10 -7 36 0 74 6 37 6 68 0 86 -7 18 -6 45 1 80 7 35 8 58 1 71 -10 19 -5
107 7 126 9 14 35 12 41 -3z m-556 -142 c0 -87 -15 -165 -42 -218 -15 -30 -17
-42 -7 -53 18 -22 26 -17 21 16 -5 36 13 40 22 5 4 -16 13 -25 27 -25 13 0 24
-10 31 -31 6 -17 21 -34 34 -39 16 -6 25 -20 30 -45 3 -20 17 -49 31 -65 17
-21 23 -39 21 -62 -3 -31 -5 -29 -43 46 -22 43 -57 97 -78 120 l-38 41 45 -65
c86 -128 114 -201 95 -257 -14 -44 -20 -37 -30 32 -9 67 -47 153 -100 222 -55
73 -70 79 -109 47 -29 -25 -46 -27 -100 -13 -21 6 -85 -125 -110 -225 -11 -44
-20 -108 -20 -143 0 -67 -13 -82 -31 -35 -7 19 -7 44 1 87 13 67 54 195 77
238 8 16 13 31 10 33 -8 9 -57 -114 -81 -205 -14 -52 -27 -95 -29 -98 -3 -2
-7 11 -11 28 -4 23 0 42 14 66 12 20 20 52 20 77 0 32 6 50 25 70 14 16 25 39
25 55 0 16 7 34 16 42 8 7 21 26 29 43 l13 31 10 -25 c8 -21 11 -22 17 -8 4
11 -3 29 -20 52 -36 47 -64 125 -72 198 -7 74 11 74 21 1 13 -100 82 -203 136
-203 65 0 130 136 130 271 0 39 4 69 10 69 6 0 10 -32 10 -75z m2037 -147 c58
-62 94 -157 118 -318 29 -187 13 -458 -35 -620 -16 -55 -19 -85 -7 -69 28 33
138 188 157 220 14 23 46 74 71 113 80 122 212 375 286 546 38 88 42 95 42 82
1 -14 -78 -215 -135 -344 -74 -168 -77 -176 -90 -247 -3 -13 3 -45 12 -73 12
-38 13 -52 4 -63 -6 -8 -9 -19 -5 -25 3 -5 -1 -13 -9 -16 -9 -3 -16 -14 -16
-23 0 -9 -16 -41 -35 -71 -38 -61 -43 -98 -19 -135 20 -30 40 -32 54 -4 23 42
82 98 110 104 40 9 93 -18 131 -67 34 -43 47 -40 74 13 30 56 106 45 140 -21
10 -19 23 -30 36 -30 16 0 19 -4 13 -17 -4 -10 -9 -96 -11 -192 -3 -147 -1
-178 13 -199 12 -19 13 -29 5 -51 -13 -31 -19 -190 -8 -209 5 -6 16 -12 26
-12 28 0 69 -51 91 -114 25 -75 28 -278 4 -433 -12 -84 -13 -116 -4 -157 23
-103 30 -228 19 -331 -12 -106 -22 -125 -66 -125 -28 0 -28 0 -3 70 15 42 19
81 19 165 0 135 -12 177 -55 189 -25 8 -33 17 -42 53 -11 38 -15 43 -42 43
-26 0 -31 -5 -47 -50 -12 -35 -22 -49 -32 -45 -8 3 -24 -4 -37 -16 -22 -20
-22 -21 -33 -1 -5 10 -14 46 -20 80 -10 64 -25 102 -41 102 -5 0 -16 -16 -24
-35 -8 -19 -19 -35 -24 -35 -11 0 -32 -45 -32 -70 0 -24 -18 -36 -33 -21 -6 6
-15 7 -21 2 -6 -4 -25 -11 -42 -14 -31 -6 -32 -4 -43 38 -6 24 -18 51 -27 59
-30 30 -72 -14 -89 -94 -11 -52 -16 -56 -31 -21 -11 25 -18 31 -33 26 -11 -3
-22 -1 -26 5 -5 8 -11 8 -20 0 -8 -7 -24 -9 -36 -5 -17 6 -27 2 -39 -16 l-18
-22 -16 31 c-9 17 -16 47 -16 67 0 41 -24 105 -40 105 -17 0 -30 -46 -30 -105
0 -57 -1 -59 -41 -68 -24 -6 -27 -4 -33 31 -8 52 -40 86 -67 71 -34 -18 -49
-71 -50 -171 0 -51 -4 -115 -9 -143 -5 -34 -7 7 -7 125 1 149 -2 181 -17 213
-22 45 -30 46 -46 7 -10 -25 -18 -30 -45 -30 -58 0 -59 -7 -60 -276 0 -219 -2
-244 -16 -244 -39 0 -44 25 -45 239 0 113 -3 215 -7 227 -4 12 -18 26 -31 32
-13 6 -34 30 -47 54 -14 23 -31 44 -39 45 -8 2 -27 -14 -41 -35 -54 -78 -136
-92 -195 -32 -16 16 -33 30 -37 30 -12 0 -79 -50 -98 -74 -15 -17 -20 -18 -48
-6 -18 7 -45 29 -61 48 l-30 36 -32 -31 c-18 -17 -55 -40 -82 -52 -46 -20 -48
-22 -42 -53 3 -18 9 -60 12 -94 6 -60 6 -61 -24 -73 -16 -7 -52 -12 -78 -11
-27 1 -55 1 -61 1 -18 -1 -16 -37 7 -143 21 -94 18 -113 -16 -106 -21 4 -21 3
-69 228 -20 91 -40 183 -45 205 -5 22 -17 72 -25 110 -9 39 -20 85 -26 104
l-11 33 -34 -62 c-42 -79 -60 -99 -107 -120 -50 -22 -78 -16 -131 31 -24 22
-47 39 -50 39 -3 0 -23 -25 -43 -56 -21 -31 -39 -51 -41 -45 -2 7 -35 11 -87
11 -74 0 -87 3 -113 25 -17 14 -32 25 -35 25 -4 0 -23 -11 -43 -25 -20 -14
-49 -25 -63 -25 -34 0 -84 31 -112 69 -13 17 -28 31 -33 31 -6 0 -24 -20 -39
-45 -16 -24 -37 -47 -48 -50 -36 -12 -77 5 -99 41 -12 19 -25 34 -29 34 -5 0
-19 -24 -31 -52 -15 -34 -24 -47 -27 -36 -3 13 -9 15 -26 9 -13 -5 -57 -14
-99 -21 -73 -12 -79 -11 -114 9 -32 19 -38 20 -53 7 -11 -10 -37 -14 -84 -13
-54 2 -68 5 -73 20 -6 19 -29 23 -39 7 -9 -15 -45 -12 -45 4 0 7 -7 19 -16 26
-13 11 -20 8 -45 -23 -31 -38 -79 -52 -79 -23 0 22 -17 28 -41 16 -29 -16 -40
-3 -60 72 -12 43 -16 83 -12 132 4 55 1 75 -11 91 -16 20 -16 20 -40 -7 -17
-19 -28 -49 -36 -100 -15 -89 -37 -145 -61 -158 -35 -20 -86 -12 -108 16 -12
15 -21 32 -21 39 0 7 -10 24 -21 39 -24 31 -23 -20 -15 681 6 519 11 568 63
617 31 29 99 43 121 26 7 -6 31 -12 54 -13 43 -3 61 -17 114 -91 l21 -29 35
55 c52 80 70 93 129 94 49 1 53 -1 93 -46 39 -45 66 -60 66 -39 0 5 13 23 29
40 32 34 73 41 103 17 51 -39 78 -182 78 -420 0 -77 2 -137 5 -134 3 3 12 60
21 126 40 330 137 499 256 449 43 -18 64 -43 102 -119 17 -35 35 -63 41 -63 5
0 24 27 43 60 18 33 45 72 59 87 25 26 76 51 86 42 2 -2 10 2 17 11 19 23 36
18 61 -18 33 -46 38 -47 81 -25 31 16 52 19 115 16 74 -3 77 -4 110 -43 l35
-40 41 47 c43 47 56 53 129 50 38 -2 98 -47 98 -74 0 -7 9 -24 20 -38 l19 -25
12 30 c14 36 106 94 160 102 35 5 109 -23 124 -47 10 -16 34 -12 66 13 24 17
43 22 92 21 91 -1 149 -30 189 -94 17 -28 34 -47 37 -42 3 5 13 11 22 14 8 3
20 23 27 45 10 32 20 43 65 66 30 15 62 27 71 27 31 0 95 -39 113 -70 9 -16
20 -30 24 -30 4 0 13 17 20 38 6 20 27 54 45 74 18 20 41 59 51 87 16 45 21
51 47 51 37 0 59 -25 109 -129 43 -87 57 -101 82 -81 19 16 19 47 0 135 -69
331 -18 751 107 867 42 39 85 38 125 -4z m-2047 -278 c0 -15 -5 -30 -12 -32
-9 -3 -9 -15 0 -50 7 -26 12 -55 11 -65 0 -16 -1 -16 -9 2 -7 17 -9 16 -9 -10
-1 -34 -25 -75 -44 -75 -13 0 -47 -69 -47 -98 -1 -9 -7 -28 -15 -42 l-15 -25
6 30 c4 17 11 40 15 53 5 13 9 43 9 67 0 23 7 56 15 71 19 38 19 57 -3 102
-20 42 -15 97 8 97 10 0 14 -8 12 -24 -4 -36 18 -97 29 -80 5 8 9 26 9 41 0
15 5 30 10 33 6 3 10 15 10 26 0 11 5 17 10 14 6 -3 10 -19 10 -35z m2898
-253 c23 -51 42 -100 42 -109 0 -9 -21 -61 -46 -115 l-46 -98 -50 104 -49 104
20 46 c45 105 73 161 79 161 4 -1 26 -42 50 -93z m-3369 -2014 c15 -54 13
-116 -4 -139 -20 -27 -18 -52 5 -66 13 -9 20 -24 20 -45 0 -40 -15 -42 -46 -5
-19 21 -24 23 -24 10 0 -10 -5 -18 -11 -18 -17 0 -6 185 15 248 10 28 22 52
27 52 4 0 13 -17 18 -37z m-457 -4 c10 -13 25 -53 32 -89 l14 -65 1 57 c1 46
5 59 20 68 29 15 51 12 51 -7 0 -14 3 -13 23 5 13 12 31 22 40 22 20 0 55 -51
64 -92 9 -43 23 -33 23 17 0 43 16 65 49 65 16 0 13 -46 -3 -59 -11 -9 -12
-18 -3 -42 11 -27 9 -32 -13 -49 -25 -19 -22 -35 8 -35 23 0 27 -29 6 -49 -21
-22 -48 -17 -52 9 -7 46 -13 49 -32 17 -25 -41 -38 -41 -42 1 l-3 32 -19 -38
c-10 -21 -24 -36 -30 -34 -20 6 -18 36 3 63 26 33 26 40 1 61 -11 10 -20 27
-20 40 0 28 -14 37 -29 19 -8 -10 -9 -16 -1 -21 15 -10 12 -55 -5 -61 -8 -4
-15 -15 -15 -26 0 -15 5 -18 20 -13 33 10 27 -42 -6 -57 -32 -15 -43 0 -44 57
l-1 40 -16 -30 c-19 -36 -43 -65 -55 -65 -4 0 -8 66 -8 146 0 153 4 164 42
113z m-403 -26 c9 -17 10 -17 17 0 9 24 24 3 24 -35 0 -43 18 -42 31 1 7 22
16 38 20 35 11 -6 10 -179 -1 -214 l-7 -25 -7 26 c-4 15 -7 33 -6 40 2 8 2 21
1 29 -1 13 -2 13 -11 0 -5 -8 -17 -15 -27 -15 -13 0 -19 -9 -21 -30 -4 -37
-22 -59 -22 -27 0 29 -14 28 -28 -3 -6 -14 -16 -25 -22 -25 -15 0 -12 50 5 66
21 21 19 51 -4 63 -15 9 -20 7 -25 -12 -3 -12 -6 -32 -6 -45 0 -13 -5 -33 -11
-44 -11 -21 -12 -21 -25 3 l-13 24 -1 -22 c0 -25 -15 -31 -24 -10 -5 10 -7 10
-12 0 -9 -20 -22 -15 -26 10 -4 28 -22 29 -26 0 -5 -35 -29 -49 -51 -29 -10 9
-25 16 -32 14 -11 -2 -13 14 -11 82 2 47 8 89 13 94 5 6 9 18 9 27 0 24 20 35
31 18 12 -19 11 -126 -1 -134 -13 -8 -13 -42 1 -50 15 -10 18 -4 29 61 13 74
31 134 41 134 11 0 19 -28 19 -68 0 -20 4 -44 9 -51 10 -16 11 -15 29 79 9 44
9 44 20 19 6 -15 9 -44 8 -65 -2 -22 1 -11 7 24 6 34 14 62 19 62 4 0 8 -7 8
-16 0 -13 4 -12 28 5 33 25 38 26 51 4z m245 8 c3 -4 17 -6 31 -3 22 4 25 1
25 -22 0 -14 -4 -26 -9 -26 -14 0 -23 -32 -11 -44 16 -16 12 -44 -10 -56 -26
-14 -27 -44 -1 -35 13 4 20 0 24 -15 9 -35 -41 -68 -59 -39 -4 7 -6 52 -5 100
1 49 -3 89 -8 89 -10 0 -31 -109 -31 -164 0 -25 -4 -35 -11 -30 -8 5 -9 32 -5
89 6 67 4 84 -8 88 -23 9 -26 -2 -26 -90 0 -45 -4 -83 -9 -83 -14 0 -19 44
-14 123 6 96 12 125 23 107 6 -10 12 -11 22 -3 23 19 74 28 82 14z m756 -47
c0 -17 3 -46 7 -65 5 -28 7 -30 14 -14 4 11 8 43 8 70 2 67 21 39 21 -29 0
-69 22 -46 28 30 5 66 22 54 22 -17 0 -73 -12 -169 -21 -169 -5 0 -9 9 -9 19
0 34 -17 33 -30 -2 l-12 -32 -10 25 c-6 15 -12 20 -15 12 -8 -22 -43 -35 -59
-21 -28 23 -8 176 32 240 10 17 24 -10 24 -47z m170 -21 c0 -53 13 -55 29 -5
14 46 36 76 50 67 18 -11 12 -42 -14 -81 -32 -47 -33 -92 -2 -103 29 -11 35 5
36 89 1 77 16 112 26 59 3 -19 5 -43 3 -54 -2 -11 2 -22 7 -25 6 -3 11 12 13
35 1 22 5 51 9 65 6 24 6 23 14 -10 5 -19 6 -64 4 -100 l-5 -65 19 80 c20 88
30 115 40 115 12 0 33 -166 26 -204 -8 -40 -22 -48 -27 -13 -4 28 -22 29 -26
0 -5 -31 -54 -25 -63 8 -7 25 -8 23 -24 -27 -4 -13 -8 -14 -19 -5 -10 8 -16 9
-21 1 -10 -17 -44 7 -52 38 l-7 27 -6 -29 c-7 -38 -30 -47 -30 -11 0 32 -23
29 -28 -3 -5 -32 -22 -27 -22 6 0 42 25 165 39 191 17 32 31 11 31 -46z"/>
<path d="M3606 3581 c-8 -13 10 -188 25 -246 21 -78 103 -320 112 -330 18 -19
0 225 -23 315 -21 82 -83 246 -100 263 -4 5 -11 4 -14 -2z"/>
<path d="M1850 3295 c0 -9 6 -12 15 -9 8 4 15 1 15 -6 0 -6 -4 -9 -9 -5 -5 3
-12 1 -15 -4 -3 -4 -18 -11 -34 -14 -52 -10 -57 -40 -27 -158 15 -57 31 -110
37 -116 19 -24 48 -15 63 20 17 41 24 239 9 258 -6 8 -14 22 -17 32 -8 21 -37
23 -37 2z"/>
<path d="M705 1822 c-52 -33 -92 -139 -111 -302 l-8 -65 -8 80 c-12 113 -41
204 -78 241 -33 34 -65 44 -146 44 -42 0 -55 -4 -64 -19 -6 -13 -10 -197 -10
-528 0 -562 -2 -547 60 -541 43 4 48 18 49 161 l1 107 34 0 c53 0 99 49 125
134 11 37 21 81 21 96 0 16 5 32 10 35 7 4 10 -81 10 -247 0 -284 2 -292 60
-286 42 4 48 19 49 141 l1 87 49 0 48 0 6 -97 c3 -54 8 -106 12 -115 9 -24 80
-25 89 -2 3 9 6 186 6 394 0 403 -8 501 -51 600 -37 87 -96 118 -154 82z m106
-93 c63 -68 81 -208 77 -614 l-3 -300 -25 0 -25 0 -3 113 -3 113 -77 -3 -77
-3 -3 -112 c-3 -112 -3 -113 -27 -113 -15 0 -26 7 -30 20 -9 29 4 665 16 740
14 90 52 168 89 183 35 13 63 6 91 -24z m-329 -15 c72 -64 99 -338 51 -516
-21 -78 -59 -116 -121 -120 l-47 -3 -3 -133 -3 -133 -27 3 -27 3 -3 440 c-1
242 0 451 3 464 6 23 9 23 81 19 54 -4 80 -10 96 -24z"/>
<path d="M728 1600 c-37 -22 -53 -97 -53 -255 l0 -150 78 -3 77 -3 0 128 c0
141 -17 242 -45 273 -20 22 -32 24 -57 10z m48 -91 c15 -17 19 -40 22 -130 l4
-109 -52 0 -52 0 4 103 c2 77 8 110 21 130 21 32 28 33 53 6z"/>
<path d="M360 1410 l0 -180 43 0 c48 0 59 6 76 37 18 35 25 171 12 235 -14 67
-37 88 -93 88 l-38 0 0 -180z m94 84 c11 -11 16 -35 16 -80 0 -81 -11 -104
-50 -104 l-30 0 0 100 c0 99 0 100 24 100 14 0 32 -7 40 -16z"/>
<path d="M1317 1822 c-15 -9 -39 -40 -53 -67 -43 -89 -55 -178 -61 -473 -4
-204 -8 -269 -17 -257 -7 9 -33 15 -71 17 l-60 3 -5 375 c-3 206 -9 381 -13
388 -12 17 -62 15 -78 -5 -11 -13 -15 -108 -17 -505 -2 -325 1 -501 8 -528
l11 -40 109 0 c93 0 111 3 120 18 10 16 10 16 20 0 13 -21 75 -25 87 -5 4 6
10 57 13 112 l5 100 50 0 50 0 5 -102 c3 -56 10 -107 16 -113 6 -6 26 -10 45
-8 26 2 35 9 40 28 4 14 8 126 9 250 2 193 4 212 11 135 20 -228 81 -386 162
-420 27 -11 36 -11 59 1 32 17 70 65 91 114 l14 35 7 -68 c10 -90 18 -97 121
-97 103 0 107 5 113 135 5 109 -10 175 -38 175 -19 0 -20 8 -20 249 0 249 0
250 22 253 15 2 24 13 31 38 13 50 4 224 -12 244 -11 12 -33 16 -102 16 -96 0
-109 -8 -109 -64 0 -52 -11 -58 -32 -17 -76 154 -191 122 -257 -71 -23 -68
-51 -222 -52 -297 -1 -34 -5 -11 -10 59 -17 229 -59 364 -123 394 -42 20 -54
20 -89 -2z m95 -82 c35 -27 64 -101 77 -193 6 -43 11 -226 11 -408 l0 -330
-27 3 -28 3 -3 113 -3 112 -74 0 c-41 0 -76 -3 -77 -7 -2 -10 -6 -113 -7 -175
-1 -44 -3 -48 -26 -48 l-25 0 0 334 c0 356 10 468 50 546 35 69 85 88 132 50z
m376 -5 c36 -31 76 -119 69 -154 -3 -14 -11 -39 -17 -55 l-11 -30 -30 52 c-24
43 -34 52 -57 52 -73 0 -114 -112 -116 -310 -2 -221 47 -353 124 -333 17 5 60
62 60 81 0 7 4 12 9 12 13 0 31 -57 31 -94 -1 -44 -49 -127 -87 -149 -32 -18
-34 -18 -65 0 -42 23 -92 122 -115 223 -22 102 -22 386 0 486 26 113 54 180
93 213 42 37 73 39 112 6z m-764 -11 c3 -9 6 -184 6 -390 l0 -374 70 0 70 0 0
-75 0 -75 -100 0 -100 0 0 458 c0 252 3 462 7 465 12 13 41 7 47 -9z m1054
-56 l3 -68 -31 0 -30 0 0 -330 0 -330 30 0 30 0 0 -70 0 -71 -87 3 -88 3 0 65
c0 63 1 65 28 68 l27 3 0 329 0 329 -27 3 c-25 3 -28 7 -31 47 -2 25 -1 55 3
68 5 23 9 24 88 21 l82 -3 3 -67z m-147 -352 c1 -199 -1 -289 -5 -293 -1 -2
-13 -4 -26 -5 -21 -3 -26 4 -44 60 -11 34 -26 62 -33 62 -7 0 -23 -21 -35 -47
-19 -40 -28 -48 -54 -51 -27 -3 -33 2 -47 31 -29 60 -40 137 -35 243 4 81 9
111 29 150 21 42 28 49 54 49 26 0 34 -7 58 -52 16 -29 32 -53 37 -53 5 0 16
24 26 53 22 68 20 65 49 59 l25 -4 1 -202z"/>
<path d="M1331 1589 c-11 -12 -25 -45 -31 -73 -11 -53 -20 -292 -12 -313 3 -9
28 -13 78 -13 l74 0 0 143 c0 99 -5 159 -15 195 -24 81 -56 101 -94 61z m53
-74 c20 -20 28 -69 30 -164 l1 -76 -50 0 -50 0 -3 70 c-4 95 19 185 49 185 4
0 14 -7 23 -15z"/>
<path d="M2250 1821 c-45 -24 -92 -115 -122 -236 -20 -79 -22 -116 -22 -305 0
-189 2 -226 22 -305 40 -160 99 -255 161 -255 72 0 131 86 173 256 18 75 22
118 22 279 1 105 -2 217 -6 250 l-6 60 14 -50 c31 -105 43 -116 69 -65 9 17
20 30 25 30 6 0 10 -131 10 -356 0 -226 4 -362 10 -375 8 -13 21 -19 46 -19
28 0 36 5 44 26 6 15 10 172 10 375 0 192 4 349 8 349 4 0 16 -14 26 -31 10
-16 23 -28 29 -26 7 2 19 29 27 60 8 31 18 57 22 57 4 0 8 -177 8 -394 0 -433
-2 -420 61 -414 43 4 47 19 48 181 1 98 4 128 14 125 6 -3 28 -68 48 -145 20
-77 39 -146 43 -152 11 -18 93 -14 100 5 13 34 5 110 -25 227 -32 128 -32 129
0 242 l19 70 1 -55 c4 -219 71 -444 148 -491 133 -82 243 163 243 541 0 204
-25 342 -80 456 -34 69 -69 98 -119 98 -72 0 -142 -126 -173 -314 l-12 -75
-12 106 c-14 122 -46 213 -86 242 -20 15 -48 21 -109 25 -97 6 -109 -3 -109
-80 0 -55 -12 -62 -30 -18 -20 49 -83 106 -124 114 -90 17 -194 -96 -196 -214
l-1 -45 -25 75 c-32 95 -70 156 -111 175 -39 19 -41 19 -83 -4z m111 -101 c68
-71 102 -221 101 -445 0 -226 -39 -384 -108 -444 -80 -71 -149 -14 -199 165
-26 91 -32 382 -11 504 28 157 88 260 153 260 17 0 39 -14 64 -40z m335 24
c33 -16 94 -94 94 -121 0 -16 -21 -106 -27 -112 -2 -3 -19 14 -39 37 -20 23
-40 40 -45 36 -5 -3 -9 -168 -9 -390 l0 -384 -25 0 -25 0 0 384 c0 228 -4 387
-9 391 -10 6 -48 -29 -67 -61 -16 -26 -23 -16 -36 53 -11 59 -10 61 20 105 30
44 79 77 115 78 11 0 34 -7 53 -16z m695 -16 c31 -36 57 -97 81 -194 27 -113
30 -377 5 -489 -36 -163 -86 -245 -149 -245 -101 0 -168 196 -168 484 1 220
38 376 107 445 29 29 38 33 69 28 19 -3 44 -16 55 -29z m-377 -3 c61 -29 86
-110 86 -284 0 -125 -12 -197 -42 -260 l-21 -45 36 -150 c21 -83 37 -157 37
-164 0 -9 -11 -12 -32 -10 l-32 3 -32 125 c-17 69 -35 138 -38 153 -6 25 -11
28 -39 25 l-32 -3 -3 -153 -3 -153 -27 3 -27 3 -3 440 c-1 242 0 450 3 463 5
20 11 22 71 22 38 0 79 -6 98 -15z"/>
<path d="M2263 1598 c-53 -59 -77 -156 -77 -318 0 -166 28 -274 83 -324 19
-17 24 -18 46 -6 56 30 89 151 89 330 1 170 -30 285 -86 324 -29 20 -31 20
-55 -6z m66 -89 c32 -35 46 -106 46 -234 0 -90 -5 -133 -18 -172 -34 -99 -84
-101 -121 -7 -25 62 -29 285 -7 349 30 85 61 105 100 64z"/>
<path d="M3290 1592 c-104 -104 -98 -540 9 -636 19 -17 24 -18 46 -6 74 40
116 285 81 481 -18 101 -63 187 -99 189 -5 0 -21 -13 -37 -28z m84 -100 c28
-56 39 -133 34 -246 -5 -115 -25 -185 -61 -214 -57 -48 -117 120 -104 292 8
102 21 147 53 186 21 24 29 28 45 20 10 -6 25 -23 33 -38z"/>
<path d="M2900 1432 c0 -87 2 -161 4 -163 2 -2 28 -2 56 0 48 3 53 5 66 37 9
21 14 70 14 132 0 85 -3 103 -21 126 -17 22 -28 26 -70 26 l-49 0 0 -158z"/>
<path d="M4213 1824 c-80 -40 -135 -196 -153 -435 -23 -304 47 -602 153 -652
37 -17 39 -17 77 4 36 21 64 62 102 154 11 29 12 26 18 -45 3 -41 9 -80 13
-87 11 -17 67 -27 80 -14 7 7 14 56 17 109 l5 97 44 3 c55 4 61 -4 61 -90 0
-39 4 -68 10 -68 6 0 10 47 10 120 l0 121 -77 -3 -78 -3 -5 -115 c-5 -114 -5
-115 -30 -115 l-25 0 4 350 c3 355 8 420 36 506 19 55 64 99 102 99 36 0 79
-49 97 -111 29 -101 36 -194 36 -521 0 -325 11 -430 26 -241 11 147 -3 644
-20 730 -17 83 -47 158 -78 190 -51 55 -122 32 -163 -52 -47 -95 -57 -169 -62
-468 -3 -153 -9 -275 -13 -270 -5 4 -17 32 -27 62 -10 30 -23 56 -30 59 -7 2
-24 -20 -38 -48 -24 -47 -28 -51 -58 -48 -30 3 -34 8 -55 68 -20 57 -22 80
-19 190 5 162 31 226 89 218 16 -2 32 -19 52 -57 26 -49 30 -52 42 -37 7 10
22 50 34 89 26 84 22 127 -19 213 -47 97 -97 129 -158 98z m95 -89 c62 -52 83
-145 48 -212 -11 -22 -12 -21 -35 22 -39 73 -95 74 -131 1 -66 -138 -65 -416
3 -541 36 -66 97 -58 127 16 16 37 25 37 39 -2 17 -49 13 -85 -14 -138 -68
-136 -160 -108 -217 64 -86 260 -47 688 71 788 40 34 71 34 109 2z"/>
<path d="M3550 1801 c-15 -30 -14 -1043 2 -1059 17 -17 63 -15 78 3 8 10 15
60 18 135 l5 120 33 0 c51 0 97 50 124 135 18 56 24 101 28 228 4 154 5 158
26 155 21 -3 21 -7 24 -250 2 -244 2 -248 -18 -248 -13 0 -24 -10 -30 -26 -11
-28 -11 -152 -1 -199 6 -28 7 -27 14 19 4 27 7 66 7 87 0 34 3 38 28 41 l27 3
0 325 0 325 -28 3 c-28 3 -28 4 -25 70 l3 67 79 3 c91 3 96 0 96 -68 0 -54 -7
-67 -40 -71 l-25 -4 0 -325 0 -325 30 -5 c29 -5 30 -7 35 -75 6 -87 20 -54 20
48 0 77 -11 107 -40 107 -19 0 -20 8 -20 245 l0 245 24 9 c13 5 26 17 30 26
10 26 7 221 -4 249 -9 25 -12 26 -99 26 -107 0 -113 -4 -121 -103 l-5 -72 -19
53 c-32 93 -77 122 -192 122 -42 0 -55 -4 -64 -19z m200 -96 c46 -46 64 -132
64 -300 -1 -230 -40 -320 -142 -327 l-47 -3 -3 -133 -3 -133 -27 3 -27 3 -3
440 c-1 242 0 451 3 464 6 22 9 23 80 19 67 -3 78 -6 105 -33z"/>
<path d="M3620 1411 l0 -181 50 0 c72 0 84 27 85 182 0 103 -2 120 -21 145
-17 23 -30 29 -68 31 l-46 3 0 -180z m94 83 c11 -11 16 -35 16 -80 0 -81 -11
-104 -50 -104 l-30 0 0 100 c0 99 0 100 24 100 14 0 32 -7 40 -16z"/>
<path d="M4782 1808 c-9 -9 -12 -140 -12 -527 0 -284 4 -521 8 -526 4 -6 56
-11 119 -11 132 -1 123 -12 123 149 0 139 -4 147 -79 147 -44 0 -60 4 -65 16
-3 9 -6 179 -6 378 0 268 -3 365 -12 374 -7 7 -24 12 -38 12 -14 0 -31 -5 -38
-12z m66 -460 l2 -388 69 0 c79 0 81 -2 81 -86 0 -50 -2 -55 -27 -65 -14 -5
-60 -8 -102 -7 l-76 3 -3 455 c-1 250 0 461 3 468 3 7 15 12 27 10 l23 -3 3
-387z"/>
<path d="M4548 1600 c-34 -20 -51 -105 -52 -259 l-1 -146 79 -3 78 -3 -4 163
c-3 124 -9 172 -22 203 -23 54 -43 65 -78 45z m46 -85 c17 -18 29 -84 30 -175
l1 -65 -54 -3 -54 -3 5 105 c3 75 9 112 22 130 19 30 29 32 50 11z"/>
</g>
</svg>
